<?xml version="1.0" encoding="UTF-8" standalone="no"?>
<!-- Created with Inkscape (http://www.inkscape.org/) -->

<svg
   xmlns:dc="http://purl.org/dc/elements/1.1/"
   xmlns:cc="http://creativecommons.org/ns#"
   xmlns:rdf="http://www.w3.org/1999/02/22-rdf-syntax-ns#"
   xmlns:svg="http://www.w3.org/2000/svg"
   xmlns="http://www.w3.org/2000/svg"
   xmlns:sodipodi="http://sodipodi.sourceforge.net/DTD/sodipodi-0.dtd"
   xmlns:inkscape="http://www.inkscape.org/namespaces/inkscape"
   version="1.1"
   id="svg10"
   xml:space="preserve"
   width="466.66666"
   height="200"
   viewBox="0 0 466.66666 200"
   sodipodi:docname="Barret M82.svg"
   inkscape:version="0.92.1 r15371"><metadata
     id="metadata16"><rdf:RDF><cc:Work
         rdf:about=""><dc:format>image/svg+xml</dc:format><dc:type
           rdf:resource="http://purl.org/dc/dcmitype/StillImage" /><dc:title></dc:title></cc:Work></rdf:RDF></metadata><defs
     id="defs14"><clipPath
       clipPathUnits="userSpaceOnUse"
       id="clipPath26"><path
         d="M 0,150 H 350 V 0 H 0 Z"
         id="path24"
         inkscape:connector-curvature="0" /></clipPath></defs><sodipodi:namedview
     pagecolor="#ffffff"
     bordercolor="#666666"
     borderopacity="1"
     objecttolerance="10"
     gridtolerance="10"
     guidetolerance="10"
     inkscape:pageopacity="0"
     inkscape:pageshadow="2"
     inkscape:window-width="1680"
     inkscape:window-height="987"
     id="namedview12"
     showgrid="false"
     inkscape:zoom="2.6764286"
     inkscape:cx="233.33333"
     inkscape:cy="100"
     inkscape:window-x="-8"
     inkscape:window-y="-8"
     inkscape:window-maximized="1"
     inkscape:current-layer="g18" /><g
     id="g18"
     inkscape:groupmode="layer"
     inkscape:label="Barret M82"
     transform="matrix(1.3333333,0,0,-1.3333333,0,200)"><g
       id="g20"><g
         id="g22"
         clip-path="url(#clipPath26)"><g
           id="g28"
           transform="translate(133.1968,81.4229)"><path
             d="m 0,0 v -2.906 h 0.451 c 0.041,-0.227 0.043,-0.715 -0.528,-1.172 0,0 -1.331,-0.089 -1.905,3.162 0,0 -0.274,2.197 0.698,2.105 0,0 0.745,0.01 1.284,-1.189 m 44.124,-1.067 h 2.967 c 0,0 -0.278,-2.198 0.497,-3.331 0,0 -2.537,-1.415 -3.494,1.666 0,0 -0.224,1.075 0.03,1.665 m 4.746,0.544 c 0,0 1.347,-1.72 0.153,-3.2 0,0 -0.528,0.678 -0.153,3.2 m 0.361,-3.401 c 1.549,1.92 -0.208,3.979 -0.208,3.979 v 1.596 l 8.86,-0.138 2.777,-5.021 c -1.179,-0.624 -2.152,1.134 -2.152,1.134 L 57.305,-2.466 C 55.2,-5.219 53.118,-2.489 53.118,-2.489 L 51.729,-2.582 51.336,-3.415 51.291,-5.15 c -1.621,-0.463 -2.06,1.226 -2.06,1.226 m 37.918,26.281 h 2.035 c 4.143,-0.716 8.328,0 8.328,0 h 1.559 v -4.974 h -0.399 v -0.624 h -1.505 v 0.624 h -0.895 v -0.624 h -1.506 v 0.624 h -0.894 v -0.624 h -1.506 v 0.624 h -0.895 v -0.624 h -1.506 v 0.624 h -0.894 v -0.624 h -1.506 v 0.624 h -0.416 z m 11.568,6.872 h -1.365 l -0.489,0.809 c -0.093,0.168 0.147,0.167 0.147,0.167 L 98.219,30.2 c 0.388,-0.093 0.498,-0.567 0.498,-0.567 z m 2.325,0.833 c 0,0 0.025,0.347 0.443,0.323 l 0.795,10e-4 0.793,-10e-4 c 0.42,0.024 0.444,-0.323 0.444,-0.323 v -0.833 h -1.237 -1.238 z m 2.695,-37.439 c 0,0 0.277,1.017 0.971,0.94 l 4.488,0.004 c 0,0 2.037,-4.276 -1.002,-6.513 0,0 -0.478,-0.756 0.324,-0.354 0,0 4.041,3.315 2.807,6.692 l 2.654,0.063 c 0,0 1.125,-0.247 1.078,-1.218 l 0.002,-5.09 c 0,0 -0.109,-0.787 -0.896,-1.111 0,0 -6.293,-2.93 -10.426,1.728 z m 60.244,7.282 27.321,-0.393 c 0,0 0.348,0.127 0.348,-0.613 v -9.533 c 0,0 0.046,-1.063 -1.111,-1.017 l -22.672,3.748 c 0,0 -1.388,-0.14 -1.712,1.527 l -2.406,5.876 c 0,0 -0.243,0.463 0.232,0.405 m -285.455,8.262 c -0.124,-1.973 3.486,-3.253 3.486,-3.253 h 12.4 l 0.694,0.555 4.165,0.139 1.249,0.555 h 78.289 V 4.636 c 0.107,-1.959 1.942,-2.683 1.942,-2.683 L 0,1.953 V 0.755 c -0.33,0.891 -1.018,0.92 -1.018,0.92 0,0 -1.9,0.642 -1.411,-2.707 C -1.88,-4.797 0,-4.479 0,-4.479 c 0.879,0.394 0.926,1.573 0.926,1.573 H 1.758 L 1.643,-7.255 2.568,-8.389 V -9.106 H 0 l -3.841,-37.061 3.011,-0.167 -0.134,-1.23 -0.786,-0.3 -1.813,-0.055 c -0.841,0.169 -1.318,-0.285 -1.318,-0.285 0,0 -0.625,-1.362 -1.319,-2.589 -0.694,-1.227 0.74,-1.249 0.74,-1.249 l 6.355,-0.187 c 1.48,-0.034 1.975,0.625 1.975,0.625 l 1.942,2.66 c 0.532,0.509 -0.555,0.717 -0.555,0.717 l -2.961,0.415 c -0.633,0.319 -0.573,0.913 -0.39,1.383 l 2.842,-0.156 2.946,29.489 h 0.308 l 1.564,-9.085 C 8.408,-26.245 8.329,-26.317 8.329,-26.317 L 7.82,-28.262 c -0.255,-0.647 0.809,-0.926 0.809,-0.926 h 7.079 c 0.695,0.046 0.949,0.626 0.949,0.626 l 0.694,2.036 c 0.069,0.716 -2.035,0.605 -2.035,0.605 l -2.623,16.815 -0.94,6.2 h 0.555 v 4.859 h 29.334 c 1.249,0 0.833,-0.972 0.833,-0.972 l 1.203,-2.036 c -0.508,-4.673 4.397,-4.026 4.397,-4.026 1.388,-1.619 3.515,-1.527 3.515,-1.527 l 0.278,-2.405 14.298,0.184 v -16.379 l 33.221,-6.154 0.324,18.462 1.342,-0.015 1.836,-4.025 0.154,0.062 -0.972,3.947 1.095,0.016 c 4.565,-4.828 12.339,-1.373 12.339,-1.373 v 0.416 l 0.601,0.031 0.062,-0.216 c 0.802,0.033 1.096,-0.309 1.096,-0.309 l 1.511,-2.594 c 0.802,-1.653 -0.567,-2.418 -0.567,-2.418 -0.717,-0.566 0.196,-0.59 0.196,-0.59 l 0.821,0.024 c 0.914,0.183 1.389,-0.533 1.389,-0.533 l 3.736,-6.52 c 0.548,-1.157 -0.323,-1.673 -0.323,-1.673 -0.594,-0.115 -0.163,-0.54 -0.163,-0.54 0.463,-0.902 1.783,-0.833 1.783,-0.833 5.319,0.347 10.756,2.638 10.756,2.638 0.439,0.092 0.117,0.694 0.117,0.694 l -11.082,15.95 c -0.775,0.58 -0.834,1.725 -0.834,1.725 l -0.04,2.012 -0.159,0.046 c -0.133,0.139 0,0.586 0,0.586 l 6.955,6.447 c 0.447,0.479 1.187,0.37 1.187,0.37 l 26.003,-0.37 4.921,-11.15 c 0.971,-2.082 0.161,-3.261 0.161,-3.261 l -0.716,-1.967 c -0.833,-1.621 0.579,-2.383 0.579,-2.383 1.549,-1.205 2.589,-0.324 2.589,-0.324 l 2.708,1.386 c 0.462,1.088 4.327,0.534 4.327,0.534 l 21.468,-3.795 v 0.579 h 1.689 v 0.948 l 3.123,0.208 3.124,1.505 c 1.897,0.623 1.781,2.521 1.781,2.521 -2.059,5.067 -1.487,11.066 -1.487,11.066 -0.41,2.074 2.274,8.251 3.268,12.339 -0.37,4.225 -8.698,3.701 -8.698,3.701 -0.431,1.234 -2.406,1.882 -2.406,1.882 h -74.402 l -1.564,2.29 -0.796,1.249 h -0.345 v -0.624 h -1.504 v 0.624 h -0.897 v -0.624 h -1.505 v 0.624 h -0.894 v -0.624 h -1.506 v 0.624 h -0.894 v -0.624 h -1.506 v 0.624 h -0.894 v -0.624 h -1.507 v 0.624 h -0.849 v 4.974 h 6.217 c 2.289,-1.481 4.627,0 4.627,0 h 1.481 v -0.7 c 0,0 2.299,-0.377 4.123,-0.277 1.823,0.1 4.121,-0.277 4.121,-0.277 0,0 1.166,-0.325 2.805,-0.346 l -0.026,-0.001 0.729,-0.527 c 0.347,-0.092 0.867,0 0.867,0 0.127,0.093 0.094,0.619 0.094,0.619 l -0.006,-10e-4 c 0.438,0.055 0.892,0.137 1.351,0.256 v 4.587 4.589 c -3.025,0.779 -5.814,0 -5.814,0 0,0 -2.298,-0.378 -4.121,-0.278 -1.824,0.101 -4.123,-0.277 -4.123,-0.277 v -0.703 h -1.481 c -2.63,1.454 -4.627,0 -4.627,0 h -1.666 v 0.924 h 2.221 c 4.258,3.378 4.395,8.584 4.395,8.584 h -5.368 c -0.068,0.601 -0.576,0.856 -0.576,0.856 h -7.219 l -4.72,-4.774 h -1.481 c -0.12,0.179 0,0.413 0,0.413 h 0.371 c 0.232,0.347 0,0.74 0,0.74 h -0.701 c -0.027,0.041 -0.596,0.968 0.012,1.835 v 0.186 c 1.137,1.147 0.399,1.291 0.399,1.291 h -4.51 -4.512 c 0,0 -0.737,-0.144 0.401,-1.291 v -0.186 c 0.608,-0.867 0.038,-1.794 0.012,-1.835 h -0.54 v -1.153 l -0.717,-0.004 c -0.269,0.004 -0.267,-0.254 -0.267,-0.254 v -3.702 c 0.035,-0.234 0.29,-0.277 0.29,-0.277 h 2.036 v -0.556 l -0.44,-0.797 H 87.149 V 29.76 H 80.301 V 29.021 H 78.635 L 66.211,32.444 H 61.77 c -1.219,0.315 -2.319,0.44 -3.269,0.462 l 0.007,10e-4 -1.441,1.372 c 0,0 -0.533,0.294 -0.871,0 l -0.834,-1.117 c 0,0 -0.193,-0.309 0,-0.487 0.041,-0.037 0.066,-0.061 0.084,-0.077 v 0 h -10e-4 c -0.339,-0.085 -0.524,-0.154 -0.524,-0.154 -2.189,-6.856 0,-13.326 0,-13.326 3.595,-1.002 7.035,0 7.035,0 h 4.255 l 12.424,3.239 c 0.282,0.069 0.555,0 0.555,0 h 1.111 V 17.383 H 79.47 v -0.624 h -1.505 v 0.624 h -0.894 v -0.624 h -1.506 v 0.624 h -0.896 v -0.624 h -1.504 v 0.624 h -0.896 v -0.624 h -1.505 v 0.624 H 69.87 v -0.624 h -1.506 v 0.624 h -0.896 v -0.624 h -1.505 v 0.624 h -0.894 v -0.624 h -1.506 v 0.624 h -0.895 v -0.624 h -1.505 v 0.624 h -0.895 v -0.624 h -1.505 v 0.624 h -0.895 v -0.624 h -1.506 v 0.624 h -0.895 v -0.624 h -1.505 v 0.624 h -0.894 v -0.624 h -1.506 v 0.624 h -0.895 v -0.624 h -1.504 v 0.624 h -0.896 v -0.624 h -1.506 v 0.624 h -0.894 v -0.624 h -1.505 v 0.624 h -0.895 v -0.624 h -1.506 v 0.624 H 41.066 V 16.759 H 39.56 v 0.624 h -0.894 v -0.624 h -1.505 v 0.624 H 36.266 V 16.759 H 34.76 v 0.624 H 33.866 V 16.759 H 32.36 v 0.624 h -0.894 v -0.624 h -1.507 v 0.624 H 29.065 V 16.759 H 27.56 v 0.624 h -0.895 v -0.624 h -1.506 v 0.624 h -0.894 v -0.624 h -1.507 v 0.624 h -0.893 v -0.624 h -1.507 v 0.624 h -0.894 v -0.624 h -1.506 v 0.624 h -0.894 v -0.624 h -1.506 v 0.624 h -0.894 v -0.624 h -1.506 v 0.624 h -0.894 v -0.624 h -1.506 v 0.624 H 9.863 V 16.759 H 8.358 v 0.624 H 7.463 V 16.759 H 5.958 v 0.624 H 5.063 V 16.759 H 3.557 v 0.624 H 2.663 V 16.759 H 1.157 v 0.624 H 0.262 v -0.624 h -1.506 v 0.624 h -0.894 v -0.624 h -1.506 v 0.624 h -0.894 v -0.624 h -1.506 v 0.624 h -0.894 v -0.624 h -1.506 v 0.624 h -0.895 v -0.624 h -1.506 v 0.624 h -0.894 v -0.624 h -1.506 v 0.624 h -0.894 v -0.624 h -1.506 v 0.624 h -0.895 v -0.624 h -1.465 v 0.624 h -0.894 v -0.624 h -0.581 v -1.481 c -1.503,-0.139 -1.465,-1.311 -1.465,-1.311 v -1.852 h -78.659 c -0.062,0.802 -1.264,2.175 -1.264,2.175 l -18.724,-0.015 c -2.19,0.216 -1.886,-1.943 -1.886,-1.943 -2.254,-1.728 0.004,-4.165 0.004,-4.165"
             style="fill:#231f20;fill-opacity:1;fill-rule:nonzero;stroke:none"
             id="path30"
             inkscape:connector-curvature="0" /></g></g></g></g></svg>